Coordinates
version=1
nRows=10
nColumns=22
inDegrees=yes

Units are S.I. units (second, meters, Newtons, ...)
If the header above contains a line with 'inDegrees', this indicates whether rotational values are in degrees (yes) or radians (no).

endheader
time	pelvis_tilt	pelvis_list	pelvis_rotation	pelvis_tx	pelvis_ty	pelvis_tz	hip_flexion_r	hip_adduction_r	hip_rotation_r	knee_angle_r	ankle_angle_r	subtalar_angle_r	hip_flexion_l	hip_adduction_l	hip_rotation_l	knee_angle_l	ankle_angle_l	subtalar_angle_l	lumbar_extension	lumbar_bending	lumbar_rotation
      3.31000000	     -2.33790380	      4.88163932	     17.41371916	     -0.20146738	      0.91689930	     -0.58422077	     28.25069284	     -0.14075863	    -12.13993494	    -20.10918621	      1.70379708	      0.38673252	     -4.36442508	      2.27661739	     -7.72385564	    -18.77947531	     16.49341240	      1.38597706	    -10.13627946	     -7.30932282	    -16.68746466
      3.32000000	     -2.37142708	      4.92636821	     17.20522923	     -0.19269252	      0.91474885	     -0.58630461	     27.89135013	     -0.05149260	    -13.52893482	    -16.69600628	      1.13306205	      0.49066771	     -5.08840411	      2.33940417	     -7.83363564	    -18.61181697	     16.89470915	      1.37482453	    -10.03894145	     -7.24499071	    -17.11099977
      3.33000000	     -2.46048662	      4.97321025	     17.03581438	     -0.18383879	      0.91233276	     -0.58834037	     27.64685729	      0.02925065	    -14.98361155	    -13.61286485	      0.68779165	      0.64763612	     -5.71717431	      2.40544871	     -7.91204853	    -18.52521144	     17.32458770	      1.36160567	     -9.87470624	     -7.19616558	    -17.55516007
      3.34000000	     -2.52241159	      5.02704553	     16.87438724	     -0.17484556	      0.90982298	     -0.59028668	     27.41510146	      0.13773306	    -16.36995601	    -10.87205222	      0.51561974	      0.88856032	     -6.36263740	      2.46166088	     -7.93646752	    -18.48040353	     17.72454118	      1.34719393	     -9.73652623	     -7.14526132	    -17.94542368
      3.35000000	     -2.64061454	      5.07375924	     16.74558832	     -0.16579710	      0.90712278	     -0.59217509	     27.32866014	      0.22927320	    -17.66421616	     -8.58503019	      0.49639031	      1.09097688	     -6.89430645	      2.50798931	     -7.93521704	    -18.53991279	     18.13063954	      1.35047374	     -9.53262666	     -7.09735213	    -18.36659797
      3.36000000	     -2.80564052	      5.10173539	     16.65444278	     -0.15668055	      0.90428827	     -0.59403212	     27.37489497	      0.29651070	    -18.82965087	     -6.78849461	      0.65132770	      1.20002712	     -7.30867386	      2.52953477	     -7.88222912	    -18.72453676	     18.53415032	      1.38024599	     -9.26986696	     -7.03526024	    -18.79592904
      3.37000000	     -2.93795768	      5.11237792	     16.56421748	     -0.14739776	      0.90149244	     -0.59582649	     27.45595474	      0.35689951	    -19.83655032	     -5.50252173	      0.97651704	      1.26436879	     -7.72232459	      2.50992984	     -7.80332732	    -18.98017122	     18.88324766	      1.43753817	     -9.03159379	     -6.93744589	    -19.19782618
      3.38000000	     -3.03705435	      5.09506313	     16.48375788	     -0.13792322	      0.89879163	     -0.59761423	     27.57535400	      0.39201808	    -20.73699626	     -4.76518377	      1.36776044	      1.22699474	     -8.12738191	      2.43698061	     -7.69580631	    -19.31781167	     19.17604108	      1.54009937	     -8.80855973	     -6.78105703	    -19.59936131
      3.39000000	     -3.09854134	      5.04221854	     16.41724386	     -0.12824995	      0.89623100	     -0.59938968	     27.72346323	      0.40047218	    -21.57041733	     -4.57262248	      1.77807877	      1.00366086	     -8.51144479	      2.30177006	     -7.54006162	    -19.76383320	     19.40394641	      1.71336224	     -8.60600736	     -6.55955183	    -19.99642588
      3.40000000	     -3.13414224	      4.93444546	     16.34489579	     -0.11828229	      0.89382313	     -0.60112264	     27.91196892	      0.40541428	    -22.36244038	     -4.90483509	      2.16287281	      0.39787845	     -8.88037607	      2.09091186	     -7.35528167	    -20.28318916	     19.53549399	      2.02360903	     -8.38604891	     -6.25726422	    -20.40548148
